# xmcd
#
# Track frame offsets:
#	150
#	20027
#	40113
#	58682
#	78560
#
# Disc length: 1313 seconds
#
# Revision: 0
# Processed by: cddbd v1.5.2PL0 Copyright (c) Steve Scherf et al.
# Submitted via: EasyCDDAExtractor 15.3.0.1
#
DISCID=3a051f05
DTITLE=SUPREME TEAM and BROWN EYED SOUL 영준 - Ames Room
DYEAR=2010
DGENRE=Power Ballad
TTITLE0=그땐 그땐 그땐
TTITLE1=왜
TTITLE2=Ready Gaga (Feat. 정유진)
TTITLE3=그땐 그땐 그땐 (Inst.)
TTITLE4=왜 (Inst.)
EXTD=
EXTT0=
EXTT1=
EXTT2=
EXTT3=
EXTT4=
PLAYORDER=
